<mxfile host="app.diagrams.net" modified="2022-10-05T05:08:15.397Z" agent="5.0 (Macintosh; Intel Mac OS X 10_15_7) AppleWebKit/537.36 (KHTML, like Gecko) Chrome/105.0.0.0 Safari/537.36" etag="kVIKmE2y2xOv7gS-c-6q" version="20.4.0" type="github">
  <diagram name="Page-1" id="2a216829-ef6e-dabb-86c1-c78162f3ba2b">
    <mxGraphModel dx="1280" dy="527" grid="1" gridSize="10" guides="1" tooltips="1" connect="1" arrows="1" fold="1" page="1" pageScale="1" pageWidth="850" pageHeight="1100" background="none" math="0" shadow="0">
      <root>
        <mxCell id="0" />
        <mxCell id="1" parent="0" />
        <mxCell id="7a84cebc1def654-1" value="" style="shape=mxgraph.bpmn.shape;html=1;verticalLabelPosition=bottom;labelBackgroundColor=#ffffff;verticalAlign=top;perimeter=ellipsePerimeter;outline=standard;symbol=general;" parent="1" vertex="1">
          <mxGeometry x="260" y="265" width="50" height="50" as="geometry" />
        </mxCell>
        <mxCell id="7a84cebc1def654-2" value="Kiểm tra hàng sẵn có" style="shape=ext;rounded=1;html=1;whiteSpace=wrap;" parent="1" vertex="1">
          <mxGeometry x="360" y="250" width="120" height="80" as="geometry" />
        </mxCell>
        <mxCell id="7a84cebc1def654-8" value="Xác nhận đơn hàng" style="shape=ext;rounded=1;html=1;whiteSpace=wrap;" parent="1" vertex="1">
          <mxGeometry x="590" y="360" width="120" height="80" as="geometry" />
        </mxCell>
        <mxCell id="7a84cebc1def654-9" value="" style="shape=mxgraph.bpmn.shape;html=1;verticalLabelPosition=bottom;labelBackgroundColor=#ffffff;verticalAlign=top;perimeter=rhombusPerimeter;background=gateway;outline=none;symbol=parallelGw;" parent="1" vertex="1">
          <mxGeometry x="780" y="375" width="50" height="50" as="geometry" />
        </mxCell>
        <mxCell id="7a84cebc1def654-24" value="" style="shape=mxgraph.bpmn.shape;html=1;verticalLabelPosition=bottom;labelBackgroundColor=#ffffff;verticalAlign=top;perimeter=rhombusPerimeter;background=gateway;outline=none;symbol=parallelGw;" parent="1" vertex="1">
          <mxGeometry x="1020" y="375" width="50" height="50" as="geometry" />
        </mxCell>
        <mxCell id="7a84cebc1def654-29" value="Xuất hàng" style="html=1;whiteSpace=wrap;rounded=1;" parent="1" vertex="1">
          <mxGeometry x="860" y="430" width="120" height="80" as="geometry" />
        </mxCell>
        <mxCell id="7a84cebc1def654-36" style="edgeStyle=orthogonalEdgeStyle;rounded=0;html=1;jettySize=auto;orthogonalLoop=1;" parent="1" source="7a84cebc1def654-1" target="7a84cebc1def654-2" edge="1">
          <mxGeometry relative="1" as="geometry" />
        </mxCell>
        <mxCell id="7a84cebc1def654-39" style="edgeStyle=orthogonalEdgeStyle;rounded=0;html=1;jettySize=auto;orthogonalLoop=1;entryX=0;entryY=0.5;entryDx=0;entryDy=0;entryPerimeter=0;" parent="1" source="7a84cebc1def654-2" target="K46YMQu9qqwMwplF7DKo-14" edge="1">
          <mxGeometry relative="1" as="geometry">
            <mxPoint x="530" y="290" as="targetPoint" />
          </mxGeometry>
        </mxCell>
        <mxCell id="7a84cebc1def654-43" style="edgeStyle=orthogonalEdgeStyle;rounded=0;html=1;jettySize=auto;orthogonalLoop=1;exitX=1;exitY=0.5;exitDx=0;exitDy=0;" parent="1" source="K46YMQu9qqwMwplF7DKo-17" target="7a84cebc1def654-24" edge="1">
          <mxGeometry relative="1" as="geometry">
            <mxPoint x="1289.9999999999995" y="475" as="targetPoint" />
            <Array as="points">
              <mxPoint x="1045" y="320" />
            </Array>
            <mxPoint x="1090" y="290" as="sourcePoint" />
          </mxGeometry>
        </mxCell>
        <mxCell id="7a84cebc1def654-44" style="edgeStyle=orthogonalEdgeStyle;rounded=0;html=1;jettySize=auto;orthogonalLoop=1;exitX=1;exitY=0.5;exitDx=0;exitDy=0;entryX=0.5;entryY=1;entryDx=0;entryDy=0;" parent="1" source="7a84cebc1def654-29" target="7a84cebc1def654-24" edge="1">
          <mxGeometry relative="1" as="geometry">
            <mxPoint x="1025" y="515" as="sourcePoint" />
            <Array as="points">
              <mxPoint x="1045" y="470" />
            </Array>
          </mxGeometry>
        </mxCell>
        <mxCell id="7a84cebc1def654-46" style="edgeStyle=orthogonalEdgeStyle;rounded=0;html=1;jettySize=auto;orthogonalLoop=1;" parent="1" source="7a84cebc1def654-24" edge="1">
          <mxGeometry relative="1" as="geometry">
            <mxPoint x="1140" y="400" as="targetPoint" />
          </mxGeometry>
        </mxCell>
        <mxCell id="7a84cebc1def654-47" style="edgeStyle=orthogonalEdgeStyle;rounded=0;html=1;jettySize=auto;orthogonalLoop=1;exitX=0.5;exitY=1;exitDx=0;exitDy=0;entryX=0;entryY=0.5;entryDx=0;entryDy=0;exitPerimeter=0;" parent="1" source="K46YMQu9qqwMwplF7DKo-14" target="7a84cebc1def654-8" edge="1">
          <mxGeometry relative="1" as="geometry">
            <mxPoint x="555" y="315" as="sourcePoint" />
            <mxPoint x="555" y="430" as="targetPoint" />
          </mxGeometry>
        </mxCell>
        <mxCell id="7a84cebc1def654-49" style="edgeStyle=orthogonalEdgeStyle;rounded=0;html=1;jettySize=auto;orthogonalLoop=1;" parent="1" source="7a84cebc1def654-8" target="7a84cebc1def654-9" edge="1">
          <mxGeometry relative="1" as="geometry" />
        </mxCell>
        <mxCell id="7a84cebc1def654-51" style="edgeStyle=orthogonalEdgeStyle;rounded=0;html=1;jettySize=auto;orthogonalLoop=1;entryX=0;entryY=0.5;entryDx=0;entryDy=0;" parent="1" source="7a84cebc1def654-9" target="7a84cebc1def654-29" edge="1">
          <mxGeometry relative="1" as="geometry">
            <Array as="points">
              <mxPoint x="805" y="470" />
            </Array>
          </mxGeometry>
        </mxCell>
        <mxCell id="K46YMQu9qqwMwplF7DKo-1" value="Bắt đầu" style="text;html=1;align=center;verticalAlign=middle;resizable=0;points=[];autosize=1;strokeColor=none;fillColor=none;" vertex="1" parent="1">
          <mxGeometry x="250" y="315" width="60" height="30" as="geometry" />
        </mxCell>
        <mxCell id="K46YMQu9qqwMwplF7DKo-3" value="Huỷ đơn hàng" style="shape=ext;rounded=1;html=1;whiteSpace=wrap;" vertex="1" parent="1">
          <mxGeometry x="590" y="120" width="120" height="80" as="geometry" />
        </mxCell>
        <mxCell id="K46YMQu9qqwMwplF7DKo-7" style="edgeStyle=orthogonalEdgeStyle;rounded=0;html=1;jettySize=auto;orthogonalLoop=1;exitX=0.5;exitY=0;exitDx=0;exitDy=0;entryX=0;entryY=0.5;entryDx=0;entryDy=0;exitPerimeter=0;" edge="1" parent="1" source="K46YMQu9qqwMwplF7DKo-14" target="K46YMQu9qqwMwplF7DKo-3">
          <mxGeometry relative="1" as="geometry">
            <mxPoint x="555" y="265" as="sourcePoint" />
            <mxPoint x="554.5" y="160" as="targetPoint" />
            <Array as="points">
              <mxPoint x="560" y="160" />
            </Array>
          </mxGeometry>
        </mxCell>
        <mxCell id="K46YMQu9qqwMwplF7DKo-8" style="edgeStyle=orthogonalEdgeStyle;rounded=0;html=1;jettySize=auto;orthogonalLoop=1;exitX=1;exitY=0.5;exitDx=0;exitDy=0;" edge="1" parent="1" source="K46YMQu9qqwMwplF7DKo-3">
          <mxGeometry relative="1" as="geometry">
            <mxPoint x="730" y="159.5" as="sourcePoint" />
            <mxPoint x="780" y="159.5" as="targetPoint" />
          </mxGeometry>
        </mxCell>
        <mxCell id="K46YMQu9qqwMwplF7DKo-9" value="" style="shape=mxgraph.bpmn.shape;html=1;verticalLabelPosition=bottom;labelBackgroundColor=#ffffff;verticalAlign=top;perimeter=ellipsePerimeter;outline=end;symbol=general;" vertex="1" parent="1">
          <mxGeometry x="780" y="135.00000000000006" width="50" height="50" as="geometry" />
        </mxCell>
        <mxCell id="K46YMQu9qqwMwplF7DKo-11" value="Kết thúc" style="text;html=1;align=center;verticalAlign=middle;resizable=0;points=[];autosize=1;strokeColor=none;fillColor=none;" vertex="1" parent="1">
          <mxGeometry x="850" y="145" width="70" height="30" as="geometry" />
        </mxCell>
        <mxCell id="K46YMQu9qqwMwplF7DKo-12" value="Không có" style="text;html=1;align=center;verticalAlign=middle;resizable=0;points=[];autosize=1;strokeColor=none;fillColor=none;" vertex="1" parent="1">
          <mxGeometry x="480" y="200" width="70" height="30" as="geometry" />
        </mxCell>
        <mxCell id="K46YMQu9qqwMwplF7DKo-13" value="Có" style="text;html=1;align=center;verticalAlign=middle;resizable=0;points=[];autosize=1;strokeColor=none;fillColor=none;" vertex="1" parent="1">
          <mxGeometry x="495" y="345" width="40" height="30" as="geometry" />
        </mxCell>
        <mxCell id="K46YMQu9qqwMwplF7DKo-14" value="" style="points=[[0.25,0.25,0],[0.5,0,0],[0.75,0.25,0],[1,0.5,0],[0.75,0.75,0],[0.5,1,0],[0.25,0.75,0],[0,0.5,0]];shape=mxgraph.bpmn.gateway2;html=1;verticalLabelPosition=bottom;labelBackgroundColor=#ffffff;verticalAlign=top;align=center;perimeter=rhombusPerimeter;outlineConnect=0;outline=none;symbol=none;gwType=exclusive;" vertex="1" parent="1">
          <mxGeometry x="535" y="265" width="50" height="50" as="geometry" />
        </mxCell>
        <mxCell id="K46YMQu9qqwMwplF7DKo-16" style="edgeStyle=orthogonalEdgeStyle;rounded=0;html=1;jettySize=auto;orthogonalLoop=1;exitX=0.5;exitY=0;exitDx=0;exitDy=0;entryX=0;entryY=0.5;entryDx=0;entryDy=0;" edge="1" parent="1" source="7a84cebc1def654-9" target="K46YMQu9qqwMwplF7DKo-17">
          <mxGeometry relative="1" as="geometry">
            <mxPoint x="810" y="370" as="sourcePoint" />
            <mxPoint x="850" y="345" as="targetPoint" />
            <Array as="points">
              <mxPoint x="805" y="320" />
            </Array>
          </mxGeometry>
        </mxCell>
        <mxCell id="K46YMQu9qqwMwplF7DKo-17" value="In hoá đơn" style="html=1;whiteSpace=wrap;rounded=1;" vertex="1" parent="1">
          <mxGeometry x="860" y="280" width="120" height="80" as="geometry" />
        </mxCell>
        <mxCell id="K46YMQu9qqwMwplF7DKo-20" value="" style="edgeStyle=orthogonalEdgeStyle;rounded=0;orthogonalLoop=1;jettySize=auto;html=1;" edge="1" parent="1" source="K46YMQu9qqwMwplF7DKo-18" target="K46YMQu9qqwMwplF7DKo-19">
          <mxGeometry relative="1" as="geometry" />
        </mxCell>
        <mxCell id="K46YMQu9qqwMwplF7DKo-18" value="Lưu trữ đơn hàng" style="html=1;whiteSpace=wrap;rounded=1;" vertex="1" parent="1">
          <mxGeometry x="1140" y="360" width="120" height="80" as="geometry" />
        </mxCell>
        <mxCell id="K46YMQu9qqwMwplF7DKo-19" value="" style="shape=mxgraph.bpmn.shape;html=1;verticalLabelPosition=bottom;labelBackgroundColor=#ffffff;verticalAlign=top;perimeter=ellipsePerimeter;outline=end;symbol=general;" vertex="1" parent="1">
          <mxGeometry x="1320" y="375.00000000000006" width="50" height="50" as="geometry" />
        </mxCell>
        <mxCell id="K46YMQu9qqwMwplF7DKo-21" value="Kết thúc" style="text;html=1;align=center;verticalAlign=middle;resizable=0;points=[];autosize=1;strokeColor=none;fillColor=none;" vertex="1" parent="1">
          <mxGeometry x="1365" y="385" width="70" height="30" as="geometry" />
        </mxCell>
      </root>
    </mxGraphModel>
  </diagram>
</mxfile>
